<svg xmlns="http://www.w3.org/2000/svg" xmlns:xlink="http://www.w3.org/1999/xlink" version="1.1" x="0px" y="0px" viewBox="0 0 66 82.5" style="enable-background:new 0 0 66 66;" xml:space="preserve"><path d="M55.32,5.65L49.25,9.1L33.27,1l-4.56,2.49l12.35,10.24l-11.43,6.5l-5.71-1.16l-3.6,1.65l8.87,4l-1.8,8.73l3.33-2.23l2-5.47  l11.52-6.34l2.26,15.89l4.5-2.6l1.47-17.83l6.12-3.37c2.48-1.36,4.25-3.76,4.81-6.53C60.75,3.99,57.78,4.25,55.32,5.65z"/><path d="M11.9,33.3c2.01-1.26,4.13-2.32,6.33-3.21c2.18-0.88,4.48-1.62,6.71-2.1l0.04-0.01c0.02,0,0.04-0.01,0.07-0.02  c0.53-0.15,0.84-0.71,0.69-1.25c-0.15-0.53-0.71-0.84-1.25-0.69c-2.43,0.7-4.66,1.62-6.88,2.69c-2.2,1.07-4.31,2.33-6.28,3.76  c-1.95,1.47-3.74,3.15-5.28,5.03c-1.51,1.91-2.65,4.08-3.46,6.34c0.96-2.21,2.24-4.25,3.84-6.02C8.07,36.1,9.92,34.6,11.9,33.3z"/><path d="M9.32,31.16c1.08-0.94,2.25-1.77,3.46-2.5c1.21-0.73,2.49-1.36,3.8-1.87c1.29-0.51,2.68-0.94,3.96-1.18l0.05-0.01  c0.04-0.01,0.07-0.02,0.11-0.03c0.53-0.16,0.83-0.73,0.67-1.26s-0.73-0.83-1.26-0.67c-1.53,0.47-2.85,1.07-4.17,1.78  c-1.31,0.7-2.56,1.51-3.73,2.41c-1.17,0.9-2.27,1.88-3.25,2.97c-1.01,1.06-1.86,2.25-2.66,3.45C7.25,33.15,8.22,32.08,9.32,31.16z"/><path d="M20.38,31.15c-1.37,0.48-2.69,1.1-3.91,1.87c-1.22,0.76-2.37,1.62-3.38,2.63c-1.04,0.97-1.89,2.11-2.7,3.25  c0.94-1.05,1.91-2.05,3.03-2.87c1.09-0.86,2.29-1.55,3.52-2.13c1.24-0.58,2.53-1.01,3.85-1.3c1.3-0.29,2.7-0.45,3.92-0.42l0.06,0  c0.04,0,0.08,0,0.12,0c0.56-0.05,0.96-0.54,0.92-1.09c-0.05-0.56-0.54-0.96-1.09-0.92C23.14,30.31,21.77,30.67,20.38,31.15z"/><path d="M50.36,35.4c0.43,1.51,0.71,3.05,0.82,4.61h-9.24c-0.09-3.94-0.66-7.73-1.67-11.06h3.31l-0.29-2.01h-3.71  c-0.28-0.75-0.59-1.46-0.92-2.15l-1.78,0.98c0.18,0.38,0.36,0.77,0.52,1.17h-2.66l-0.39,0.21l-0.66,1.8h4.44  c1.07,3.28,1.69,7.08,1.78,11.06h-9.63v-6.07l-2.01,1.35v4.73H6.31c-0.56,0-1.01,0.45-1.01,1.01C5.31,54.24,16.06,65,29.28,65  c6.5,0,12.82-2.66,17.35-7.31c4.42-4.53,6.77-10.45,6.62-16.67v0v0c0-0.01,0-0.02,0-0.02c-0.06-2.25-0.43-4.47-1.1-6.63L50.36,35.4z   M10.94,53.08c-2.11-3.2-3.41-6.98-3.59-11.05h9.27c0.08,4.04,0.68,7.8,1.66,11.05H10.94z M12.43,55.09h6.52  c1.1,2.9,2.53,5.31,4.21,7.02C18.92,60.88,15.2,58.4,12.43,55.09z M28.28,62.88c-2.81-0.57-5.34-3.5-7.11-7.79h7.11V62.88z   M28.28,53.08h-7.85c-1.05-3.22-1.71-7.02-1.8-11.05h9.65V53.08z M30.29,42.03h9.65c-0.09,4.04-0.75,7.83-1.8,11.05h-7.85V42.03z   M30.29,62.88v-7.79h7.11C35.63,59.38,33.1,62.31,30.29,62.88z M45.2,56.29c-2.7,2.77-6.11,4.77-9.79,5.83  c1.67-1.71,3.11-4.12,4.21-7.02h6.64C45.91,55.5,45.57,55.9,45.2,56.29z M47.78,53.08h-7.49c0.98-3.26,1.57-7.01,1.66-11.05h9.28  C51.14,45.99,49.96,49.79,47.78,53.08z"/><text x="0" y="81" fill="#000000" font-size="5px" font-weight="bold" font-family="'Helvetica Neue', Helvetica, Arial-Unicode, Arial, Sans-serif">Created by Design Circle</text><text x="0" y="86" fill="#000000" font-size="5px" font-weight="bold" font-family="'Helvetica Neue', Helvetica, Arial-Unicode, Arial, Sans-serif">from the Noun Project</text></svg>