<svg width="0" height="0" class="hidden">
  <symbol id="chevron" xmlns="http://www.w3.org/2000/svg" viewBox="0 0 51 51">
    <defs></defs>
    <circle cx="25.5" cy="25.5" r="25.5"></circle>
    <rect x="24.4" y="27.9" width="1.6" height="15.24" rx="0.8" transform="matrix(0.78, -0.63, 0.63, 0.78, -21.26, 15.39)"></rect>
    <rect x="33.3" y="27.9" width="1.6" height="15.24" rx="0.8" transform="translate(24 -21.9) rotate(37.3)"></rect>
  </symbol>
  <symbol version="1.1" id="clock" xmlns="http://www.w3.org/2000/svg" xmlns:xlink="http://www.w3.org/1999/xlink" x="0px" y="0px" xml:space="preserve" viewBox="0 0 501.656 501.656">
    <g>
      <g>
        <path d="M342.512,328h-200c-2.122,0-4.156,0.844-5.656,2.344l-96,96l11.312,11.312L145.824,344h187.888
			c-1.664,9.496-6.888,24-23.2,24h-88v16h88c31.64,0,40-31.4,40-48C350.512,331.582,346.93,328,342.512,328z"></path>
      </g>
    </g>
    <g>
      <g>
        <path d="M444.168,274.344c-3.124-3.123-8.188-3.123-11.312,0l-72,72l11.312,11.312l65.712-65.712
			c10.828,14.37,8.629,34.68-5.024,46.4L339.2,432H174.512c-2.122,0-4.156,0.844-5.656,2.344l-56,56l11.312,11.312L177.824,448
			h164.688c2.122,0,4.156-0.844,5.656-2.344l96-96C473.96,319.864,457.192,287.368,444.168,274.344z"></path>
      </g>
    </g>
    <g>
      <g>
        <path d="M262.512,0c-83.947,0-152,68.053-152,152s68.053,152,152,152c83.909-0.093,151.907-68.091,152-152
			C414.512,68.053,346.459,0,262.512,0z M262.512,288c-75.111,0-136-60.889-136-136s60.89-136,136-136
			c75.076,0.084,135.916,60.924,136,136C398.512,227.111,337.623,288,262.512,288z"></path>
      </g>
    </g>
    <g>
      <g>
        <path d="M262.512,40c-61.856,0-112,50.144-112,112s50.145,112,112,112c61.828-0.066,111.934-50.172,112-112
			C374.512,90.144,324.368,40,262.512,40z M270.512,247.666V224h-16v23.666c-46.637-3.848-83.817-41.028-87.666-87.666h23.666v-16
			h-23.666c3.849-46.637,41.029-83.817,87.666-87.666V80h16V56.343c46.612,3.893,83.764,41.045,87.657,87.657h-23.657v16h23.666
			C354.33,206.637,317.15,243.817,270.512,247.666z"></path>
      </g>
    </g>
    <g>
      <g>
        <path d="M284.18,162.33c1.494-3.129,2.333-6.631,2.333-10.33c0-10.449-6.68-19.334-16-22.629V96h-16v33.371
			c-9.32,3.295-16,12.18-16,22.629c-0.001,13.255,10.745,24,23.999,24c3.711,0,7.225-0.843,10.362-2.347l23.977,23.977
			l11.314-11.314L284.18,162.33z M262.512,160c-4.418,0-8-3.582-8-8c0-4.418,3.582-8,8-8c4.418,0,8,3.582,8,8
			C270.512,156.418,266.93,160,262.512,160z"></path>
      </g>
    </g>
    <g></g>
    <g></g>
    <g></g>
    <g></g>
    <g></g>
    <g></g>
    <g></g>
    <g></g>
    <g></g>
    <g></g>
    <g></g>
    <g></g>
    <g></g>
    <g></g>
    <g></g>
  </symbol>
  <symbol xmlns="http://www.w3.org/2000/svg" xmlns:xlink="http://www.w3.org/1999/xlink" version="1.1" x="0px" y="0px" xml:space="preserve" viewBox="0 0 66 82.5" id="fetchers-website">
    <path d="M55.32,5.65L49.25,9.1L33.27,1l-4.56,2.49l12.35,10.24l-11.43,6.5l-5.71-1.16l-3.6,1.65l8.87,4l-1.8,8.73l3.33-2.23l2-5.47  l11.52-6.34l2.26,15.89l4.5-2.6l1.47-17.83l6.12-3.37c2.48-1.36,4.25-3.76,4.81-6.53C60.75,3.99,57.78,4.25,55.32,5.65z"></path>
    <path d="M11.9,33.3c2.01-1.26,4.13-2.32,6.33-3.21c2.18-0.88,4.48-1.62,6.71-2.1l0.04-0.01c0.02,0,0.04-0.01,0.07-0.02  c0.53-0.15,0.84-0.71,0.69-1.25c-0.15-0.53-0.71-0.84-1.25-0.69c-2.43,0.7-4.66,1.62-6.88,2.69c-2.2,1.07-4.31,2.33-6.28,3.76  c-1.95,1.47-3.74,3.15-5.28,5.03c-1.51,1.91-2.65,4.08-3.46,6.34c0.96-2.21,2.24-4.25,3.84-6.02C8.07,36.1,9.92,34.6,11.9,33.3z"></path>
    <path d="M9.32,31.16c1.08-0.94,2.25-1.77,3.46-2.5c1.21-0.73,2.49-1.36,3.8-1.87c1.29-0.51,2.68-0.94,3.96-1.18l0.05-0.01  c0.04-0.01,0.07-0.02,0.11-0.03c0.53-0.16,0.83-0.73,0.67-1.26s-0.73-0.83-1.26-0.67c-1.53,0.47-2.85,1.07-4.17,1.78  c-1.31,0.7-2.56,1.51-3.73,2.41c-1.17,0.9-2.27,1.88-3.25,2.97c-1.01,1.06-1.86,2.25-2.66,3.45C7.25,33.15,8.22,32.08,9.32,31.16z"></path>
    <path d="M20.38,31.15c-1.37,0.48-2.69,1.1-3.91,1.87c-1.22,0.76-2.37,1.62-3.38,2.63c-1.04,0.97-1.89,2.11-2.7,3.25  c0.94-1.05,1.91-2.05,3.03-2.87c1.09-0.86,2.29-1.55,3.52-2.13c1.24-0.58,2.53-1.01,3.85-1.3c1.3-0.29,2.7-0.45,3.92-0.42l0.06,0  c0.04,0,0.08,0,0.12,0c0.56-0.05,0.96-0.54,0.92-1.09c-0.05-0.56-0.54-0.96-1.09-0.92C23.14,30.31,21.77,30.67,20.38,31.15z"></path>
    <path d="M50.36,35.4c0.43,1.51,0.71,3.05,0.82,4.61h-9.24c-0.09-3.94-0.66-7.73-1.67-11.06h3.31l-0.29-2.01h-3.71  c-0.28-0.75-0.59-1.46-0.92-2.15l-1.78,0.98c0.18,0.38,0.36,0.77,0.52,1.17h-2.66l-0.39,0.21l-0.66,1.8h4.44  c1.07,3.28,1.69,7.08,1.78,11.06h-9.63v-6.07l-2.01,1.35v4.73H6.31c-0.56,0-1.01,0.45-1.01,1.01C5.31,54.24,16.06,65,29.28,65  c6.5,0,12.82-2.66,17.35-7.31c4.42-4.53,6.77-10.45,6.62-16.67v0v0c0-0.01,0-0.02,0-0.02c-0.06-2.25-0.43-4.47-1.1-6.63L50.36,35.4z   M10.94,53.08c-2.11-3.2-3.41-6.98-3.59-11.05h9.27c0.08,4.04,0.68,7.8,1.66,11.05H10.94z M12.43,55.09h6.52  c1.1,2.9,2.53,5.31,4.21,7.02C18.92,60.88,15.2,58.4,12.43,55.09z M28.28,62.88c-2.81-0.57-5.34-3.5-7.11-7.79h7.11V62.88z   M28.28,53.08h-7.85c-1.05-3.22-1.71-7.02-1.8-11.05h9.65V53.08z M30.29,42.03h9.65c-0.09,4.04-0.75,7.83-1.8,11.05h-7.85V42.03z   M30.29,62.88v-7.79h7.11C35.63,59.38,33.1,62.31,30.29,62.88z M45.2,56.29c-2.7,2.77-6.11,4.77-9.79,5.83  c1.67-1.71,3.11-4.12,4.21-7.02h6.64C45.91,55.5,45.57,55.9,45.2,56.29z M47.78,53.08h-7.49c0.98-3.26,1.57-7.01,1.66-11.05h9.28  C51.14,45.99,49.96,49.79,47.78,53.08z"></path><text x="0" y="81" fill="#000000" font-size="5px" font-weight="bold" font-family="&#x27;Helvetica Neue&#x27;, Helvetica, Arial-Unicode, Arial, Sans-serif">Created by Design Circle</text><text x="0" y="86" fill="#000000" font-size="5px" font-weight="bold" font-family="&#x27;Helvetica Neue&#x27;, Helvetica, Arial-Unicode, Arial, Sans-serif">from the Noun Project</text>
  </symbol>
  <symbol xmlns="http://www.w3.org/2000/svg" viewBox="0 0 50 2" id="line">
    <path fill="#63c3ef" d="M0 0h50v2H0z"></path>
  </symbol>
  <symbol id="menu" enable-background="new 0 0 24 24" xmlns="http://www.w3.org/2000/svg" viewBox="0 0 24 24">
    <g>
      <path d="m21.5 24h-19c-1.379 0-2.5-1.122-2.5-2.5v-19c0-1.378 1.121-2.5 2.5-2.5h19c1.379 0 2.5 1.122 2.5 2.5v19c0 1.378-1.121 2.5-2.5 2.5zm-19-23c-.827 0-1.5.673-1.5 1.5v19c0 .827.673 1.5 1.5 1.5h19c.827 0 1.5-.673 1.5-1.5v-19c0-.827-.673-1.5-1.5-1.5z"></path>
    </g>
    <g>
      <path d="m16.5 8h-9c-.276 0-.5-.224-.5-.5s.224-.5.5-.5h9c.276 0 .5.224.5.5s-.224.5-.5.5z"></path>
    </g>
    <g>
      <path d="m16.5 12.5h-9c-.276 0-.5-.224-.5-.5s.224-.5.5-.5h9c.276 0 .5.224.5.5s-.224.5-.5.5z"></path>
    </g>
    <g>
      <path d="m16.5 17h-9c-.276 0-.5-.224-.5-.5s.224-.5.5-.5h9c.276 0 .5.224.5.5s-.224.5-.5.5z"></path>
    </g>
  </symbol>
  <symbol xmlns="http://www.w3.org/2000/svg" viewBox="0 0 512 512" id="paper-plane-solid">
    <path opacity="1" fill="#dec835" d="M498.1 5.6c10.1 7 15.4 19.1 13.5 31.2l-64 416c-1.5 9.7-7.4 18.2-16 23s-18.9 5.4-28 1.6L284 427.7l-68.5 74.1c-8.9 9.7-22.9 12.9-35.2 8.1S160 493.2 160 480V396.4c0-4 1.5-7.8 4.2-10.7L331.8 202.8c5.8-6.3 5.6-16-.4-22s-15.7-6.4-22-.7L106 360.8 17.7 316.6C7.1 311.3 .3 300.7 0 288.9s5.9-22.8 16.1-28.7l448-256c10.7-6.1 23.9-5.5 34 1.4z"></path>
  </symbol>
  <symbol version="1.1" id="quotes" xmlns="http://www.w3.org/2000/svg" xmlns:xlink="http://www.w3.org/1999/xlink" x="0px" y="0px" xml:space="preserve" viewBox="0 0 508.044 508.044">
    <g>
      <g>
        <path d="M0.108,352.536c0,66.794,54.144,120.938,120.937,120.938c66.794,0,120.938-54.144,120.938-120.938
			s-54.144-120.937-120.938-120.937c-13.727,0-26.867,2.393-39.168,6.61C109.093,82.118,230.814-18.543,117.979,64.303
			C-7.138,156.17-0.026,348.84,0.114,352.371C0.114,352.426,0.108,352.475,0.108,352.536z"></path>
        <path d="M266.169,352.536c0,66.794,54.144,120.938,120.938,120.938s120.938-54.144,120.938-120.938S453.9,231.599,387.106,231.599
			c-13.728,0-26.867,2.393-39.168,6.61C375.154,82.118,496.875-18.543,384.04,64.303C258.923,156.17,266.034,348.84,266.175,352.371
			C266.175,352.426,266.169,352.475,266.169,352.536z"></path>
      </g>
    </g>
    <g></g>
    <g></g>
    <g></g>
    <g></g>
    <g></g>
    <g></g>
    <g></g>
    <g></g>
    <g></g>
    <g></g>
    <g></g>
    <g></g>
    <g></g>
    <g></g>
    <g></g>
  </symbol>
  <symbol id="search" xmlns="http://www.w3.org/2000/svg" viewBox="0 0 21.8 23.8">
    <defs></defs>
    <path d="M11,17.9a8.7,8.7,0,0,0,.8,4.8,1,1,0,0,0,1.2.4.8.8,0,0,0,.4-1.2,8.3,8.3,0,0,1-.7-3.8,7.6,7.6,0,0,1,15.2,1.1A7.7,7.7,0,0,1,16.1,25a.8.8,0,0,0-1.2.2.9.9,0,0,0,.2,1.3A10,10,0,0,0,19.6,28a9.3,9.3,0,0,0,6.1-1.7l5.5,6.4a.9.9,0,0,0,.6.3.7.7,0,0,0,.7-.2.9.9,0,0,0,.1-1.2L27,25.2a8.9,8.9,0,0,0,2.6-5.8A9.3,9.3,0,1,0,11,17.9Z" transform="translate(-10.9 -9.3)"></path>
  </symbol>
</svg>